<?xml version="1.0" encoding="UTF-8" standalone="no"?>
<!-- Generator: $$$/GeneralStr/196=Adobe Illustrator 27.6.0, SVG Export Plug-In . SVG Version: 6.00 Build 0)  -->

<svg
   version="1.1"
   id="Ebene_1"
   x="0px"
   y="0px"
   viewBox="0 0 265.81999 199.85999"
   xml:space="preserve"
   sodipodi:docname="logo.svg"
   width="372.14798"
   height="279.80399"
   inkscape:version="1.3.2 (091e20ef0f, 2023-11-25, custom)"
   xmlns:inkscape="http://www.inkscape.org/namespaces/inkscape"
   xmlns:sodipodi="http://sodipodi.sourceforge.net/DTD/sodipodi-0.dtd"
   xmlns="http://www.w3.org/2000/svg"
   xmlns:svg="http://www.w3.org/2000/svg"><defs
   id="defs45" /><sodipodi:namedview
   id="namedview45"
   pagecolor="#ffffff"
   bordercolor="#000000"
   borderopacity="0.25"
   inkscape:showpageshadow="2"
   inkscape:pageopacity="0.0"
   inkscape:pagecheckerboard="0"
   inkscape:deskcolor="#d1d1d1"
   inkscape:zoom="1.0999061"
   inkscape:cx="138.64819"
   inkscape:cy="140.01195"
   inkscape:window-width="1920"
   inkscape:window-height="1172"
   inkscape:window-x="0"
   inkscape:window-y="0"
   inkscape:window-maximized="1"
   inkscape:current-layer="Ebene_1" />
<style
   type="text/css"
   id="style1">
	.st0{fill:#058B8C;}
</style>
<g
   id="g41"
   transform="translate(-159.54,-280.85001)">
	<path
   d="m 161.01,452.7 v -16.52 h 2.6 c 1.51,0 2.61,0.1 3.31,0.29 0.99,0.26 1.78,0.75 2.36,1.46 0.58,0.71 0.88,1.55 0.88,2.52 0,0.63 -0.13,1.2 -0.4,1.71 -0.27,0.51 -0.7,0.99 -1.3,1.44 1,0.47 1.74,1.06 2.2,1.77 0.46,0.71 0.7,1.54 0.7,2.51 0,0.93 -0.24,1.77 -0.72,2.54 -0.48,0.76 -1.1,1.33 -1.85,1.71 -0.76,0.38 -1.8,0.57 -3.14,0.57 z m 3.15,-13.52 v 3.48 h 0.69 c 0.77,0 1.34,-0.16 1.71,-0.48 0.37,-0.32 0.56,-0.76 0.56,-1.31 0,-0.52 -0.18,-0.93 -0.53,-1.23 -0.35,-0.3 -0.89,-0.46 -1.61,-0.46 z m 0,6.29 v 4.23 h 0.79 c 1.31,0 2.19,-0.17 2.64,-0.49 0.45,-0.33 0.68,-0.81 0.68,-1.44 0,-0.71 -0.27,-1.27 -0.8,-1.68 -0.53,-0.41 -1.42,-0.62 -2.66,-0.62 z"
   id="path1" />
	<path
   d="m 186.26,447.48 h -9.85 c 0.14,0.87 0.52,1.56 1.14,2.07 0.62,0.51 1.41,0.77 2.36,0.77 1.15,0 2.13,-0.4 2.95,-1.2 l 2.58,1.21 c -0.64,0.91 -1.42,1.59 -2.31,2.03 -0.9,0.44 -1.97,0.66 -3.2,0.66 -1.92,0 -3.48,-0.6 -4.68,-1.81 -1.2,-1.21 -1.81,-2.72 -1.81,-4.54 0,-1.86 0.6,-3.41 1.8,-4.64 1.2,-1.23 2.71,-1.85 4.52,-1.85 1.92,0 3.49,0.62 4.69,1.85 1.2,1.23 1.81,2.86 1.81,4.88 z m -3.07,-2.42 c -0.2,-0.68 -0.6,-1.24 -1.2,-1.66 -0.6,-0.42 -1.29,-0.64 -2.08,-0.64 -0.85,0 -1.6,0.24 -2.25,0.72 -0.4,0.3 -0.78,0.83 -1.12,1.58 z"
   id="path2" />
	<path
   d="m 188.02,440.48 h 2.63 v 1.54 c 0.28,-0.61 0.66,-1.07 1.13,-1.38 0.47,-0.31 0.99,-0.47 1.55,-0.47 0.4,0 0.81,0.11 1.25,0.31 l -0.95,2.64 c -0.36,-0.18 -0.66,-0.27 -0.89,-0.27 -0.47,0 -0.87,0.29 -1.2,0.88 -0.33,0.58 -0.49,1.73 -0.49,3.44 l 0.01,0.59 v 4.94 h -3.04 z"
   id="path3" />
	<path
   d="m 196.09,440.48 h 3.1 v 5.88 c 0,1.15 0.08,1.94 0.24,2.39 0.16,0.45 0.41,0.79 0.76,1.04 0.35,0.25 0.78,0.37 1.29,0.37 0.51,0 0.94,-0.12 1.3,-0.37 0.36,-0.24 0.62,-0.6 0.79,-1.07 0.13,-0.35 0.19,-1.1 0.19,-2.26 v -5.99 h 3.07 v 5.18 c 0,2.13 -0.17,3.59 -0.51,4.38 -0.41,0.96 -1.02,1.69 -1.82,2.21 -0.8,0.51 -1.82,0.77 -3.05,0.77 -1.34,0 -2.42,-0.3 -3.25,-0.9 -0.83,-0.6 -1.41,-1.43 -1.75,-2.5 -0.24,-0.74 -0.36,-2.09 -0.36,-4.04 z"
   id="path4" />
	<path
   d="m 208.44,440.48 h 1.09 c 0.01,-1.6 0.03,-2.55 0.08,-2.84 0.08,-0.67 0.37,-1.21 0.85,-1.6 0.48,-0.39 1.17,-0.59 2.05,-0.59 0.64,0 1.35,0.15 2.16,0.44 v 2.34 c -0.44,-0.13 -0.8,-0.19 -1.09,-0.19 -0.36,0 -0.62,0.08 -0.79,0.22 -0.12,0.11 -0.18,0.34 -0.18,0.7 l -0.01,1.53 h 1.94 v 2.59 h -1.94 v 9.62 h -3.07 v -9.62 h -1.09 z"
   id="path5" />
	<path
   d="m 223.81,442.19 -1.9,1.9 c -0.77,-0.76 -1.47,-1.15 -2.1,-1.15 -0.34,0 -0.61,0.07 -0.81,0.22 -0.19,0.15 -0.29,0.33 -0.29,0.54 0,0.16 0.06,0.32 0.19,0.45 0.12,0.14 0.43,0.33 0.92,0.57 l 1.12,0.56 c 1.18,0.58 2,1.18 2.44,1.79 0.44,0.61 0.66,1.32 0.66,2.13 0,1.08 -0.4,1.99 -1.2,2.72 -0.8,0.73 -1.87,1.09 -3.21,1.09 -1.78,0 -3.2,-0.7 -4.27,-2.09 l 1.89,-2.05 c 0.36,0.42 0.78,0.76 1.26,1.02 0.48,0.26 0.91,0.39 1.29,0.39 0.4,0 0.73,-0.1 0.98,-0.29 0.25,-0.19 0.37,-0.42 0.37,-0.67 0,-0.47 -0.45,-0.93 -1.34,-1.38 l -1.03,-0.52 c -1.98,-1 -2.96,-2.24 -2.96,-3.74 0,-0.97 0.37,-1.79 1.12,-2.48 0.75,-0.68 1.7,-1.03 2.86,-1.03 0.79,0 1.54,0.17 2.24,0.52 0.69,0.35 1.29,0.85 1.77,1.5 z"
   id="path6" />
	<path
   d="m 229.5,435.76 v 6.06 c 0.55,-0.55 1.15,-0.97 1.8,-1.25 0.64,-0.28 1.33,-0.42 2.07,-0.42 1.59,0 2.95,0.6 4.07,1.81 1.12,1.21 1.67,2.75 1.67,4.64 0,1.82 -0.58,3.34 -1.73,4.57 -1.15,1.22 -2.52,1.84 -4.1,1.84 -0.7,0 -1.36,-0.12 -1.97,-0.38 -0.61,-0.26 -1.21,-0.66 -1.81,-1.23 v 1.29 h -3.04 v -16.94 h 3.04 z m 3.22,7.24 c -0.97,0 -1.77,0.33 -2.4,0.99 -0.64,0.66 -0.95,1.52 -0.95,2.58 0,1.09 0.32,1.96 0.95,2.63 0.63,0.67 1.44,1 2.4,1 0.94,0 1.72,-0.34 2.36,-1.02 0.64,-0.68 0.96,-1.55 0.96,-2.61 0,-1.05 -0.31,-1.91 -0.94,-2.58 -0.63,-0.66 -1.42,-0.99 -2.38,-0.99 z"
   id="path7" />
	<path
   d="m 242.83,435.45 c 0.54,0 1,0.2 1.38,0.58 0.38,0.39 0.58,0.86 0.58,1.42 0,0.55 -0.19,1.01 -0.57,1.4 -0.38,0.39 -0.84,0.58 -1.37,0.58 -0.55,0 -1.01,-0.2 -1.39,-0.59 -0.38,-0.39 -0.58,-0.87 -0.58,-1.43 0,-0.54 0.19,-1 0.57,-1.38 0.39,-0.39 0.84,-0.58 1.38,-0.58 z m -1.53,5.03 h 3.07 v 12.22 h -3.07 z"
   id="path8" />
	<path
   d="m 246.81,435.76 h 3.07 v 16.94 h -3.07 z"
   id="path9" />
	<path
   d="m 261.68,435.76 h 3.07 v 16.94 h -3.07 v -1.29 c -0.6,0.57 -1.2,0.98 -1.8,1.23 -0.6,0.25 -1.25,0.38 -1.96,0.38 -1.58,0 -2.94,-0.61 -4.09,-1.84 -1.15,-1.22 -1.73,-2.75 -1.73,-4.57 0,-1.89 0.56,-3.43 1.67,-4.64 1.11,-1.21 2.47,-1.81 4.06,-1.81 0.73,0 1.42,0.14 2.06,0.42 0.64,0.28 1.24,0.69 1.78,1.25 v -6.07 z m -3.22,7.24 c -0.95,0 -1.73,0.33 -2.36,1 -0.63,0.67 -0.94,1.53 -0.94,2.58 0,1.06 0.32,1.92 0.96,2.61 0.64,0.68 1.42,1.02 2.36,1.02 0.96,0 1.76,-0.33 2.4,-1 0.63,-0.67 0.95,-1.55 0.95,-2.63 0,-1.06 -0.32,-1.92 -0.95,-2.58 -0.65,-0.67 -1.45,-1 -2.42,-1 z"
   id="path10" />
	<path
   d="m 280.09,447.48 h -9.85 c 0.14,0.87 0.52,1.56 1.14,2.07 0.62,0.51 1.41,0.77 2.36,0.77 1.15,0 2.13,-0.4 2.95,-1.2 l 2.58,1.21 c -0.64,0.91 -1.42,1.59 -2.31,2.03 -0.9,0.44 -1.97,0.66 -3.2,0.66 -1.92,0 -3.48,-0.6 -4.68,-1.81 -1.2,-1.21 -1.81,-2.72 -1.81,-4.54 0,-1.86 0.6,-3.41 1.8,-4.64 1.2,-1.23 2.71,-1.85 4.52,-1.85 1.92,0 3.49,0.62 4.69,1.85 1.2,1.23 1.81,2.86 1.81,4.88 z m -3.07,-2.42 c -0.2,-0.68 -0.6,-1.24 -1.2,-1.66 -0.6,-0.42 -1.29,-0.64 -2.08,-0.64 -0.85,0 -1.6,0.24 -2.25,0.72 -0.4,0.3 -0.78,0.83 -1.12,1.58 z"
   id="path11" />
	<path
   d="m 282.57,440.48 h 3.07 v 1.25 c 0.7,-0.59 1.33,-0.99 1.89,-1.22 0.56,-0.23 1.14,-0.34 1.73,-0.34 1.21,0 2.24,0.42 3.08,1.27 0.71,0.72 1.07,1.78 1.07,3.19 v 8.07 h -3.03 v -5.35 c 0,-1.46 -0.07,-2.43 -0.2,-2.91 -0.13,-0.48 -0.36,-0.84 -0.68,-1.09 -0.32,-0.25 -0.73,-0.38 -1.2,-0.38 -0.62,0 -1.15,0.21 -1.6,0.62 -0.45,0.41 -0.75,0.99 -0.92,1.72 -0.09,0.38 -0.13,1.21 -0.13,2.48 v 4.9 h -3.07 v -12.21 z"
   id="path12" />
	<path
   d="m 305.39,435.76 h 3.06 v 16.94 h -3.06 v -1.29 c -0.6,0.57 -1.2,0.98 -1.8,1.23 -0.6,0.25 -1.25,0.38 -1.96,0.38 -1.58,0 -2.94,-0.61 -4.09,-1.84 -1.15,-1.22 -1.73,-2.75 -1.73,-4.57 0,-1.89 0.56,-3.43 1.67,-4.64 1.11,-1.21 2.47,-1.81 4.06,-1.81 0.73,0 1.42,0.14 2.06,0.42 0.64,0.28 1.24,0.69 1.79,1.25 z m -3.22,7.24 c -0.95,0 -1.73,0.33 -2.36,1 -0.63,0.67 -0.94,1.53 -0.94,2.58 0,1.06 0.32,1.92 0.96,2.61 0.64,0.68 1.42,1.02 2.36,1.02 0.96,0 1.76,-0.33 2.39,-1 0.63,-0.67 0.95,-1.55 0.95,-2.63 0,-1.06 -0.32,-1.92 -0.95,-2.58 -0.64,-0.67 -1.44,-1 -2.41,-1 z"
   id="path13" />
	<path
   d="m 323.8,447.48 h -9.85 c 0.14,0.87 0.52,1.56 1.14,2.07 0.62,0.51 1.41,0.77 2.36,0.77 1.15,0 2.13,-0.4 2.95,-1.2 l 2.58,1.21 c -0.64,0.91 -1.42,1.59 -2.31,2.03 -0.9,0.44 -1.97,0.66 -3.2,0.66 -1.92,0 -3.48,-0.6 -4.68,-1.81 -1.2,-1.21 -1.81,-2.72 -1.81,-4.54 0,-1.86 0.6,-3.41 1.8,-4.64 1.2,-1.23 2.71,-1.85 4.52,-1.85 1.92,0 3.49,0.62 4.69,1.85 1.2,1.23 1.81,2.86 1.81,4.88 z m -3.07,-2.42 c -0.2,-0.68 -0.6,-1.24 -1.2,-1.66 -0.6,-0.43 -1.29,-0.64 -2.08,-0.64 -0.85,0 -1.6,0.24 -2.25,0.72 -0.4,0.3 -0.78,0.83 -1.12,1.58 z"
   id="path14" />
	<path
   d="m 347.29,438.42 -2.33,2.05 c -0.82,-1.14 -1.65,-1.71 -2.5,-1.71 -0.41,0 -0.75,0.11 -1.01,0.33 -0.26,0.22 -0.39,0.47 -0.39,0.75 0,0.28 0.09,0.54 0.28,0.79 0.25,0.33 1.02,1.04 2.31,2.12 1.2,1 1.93,1.64 2.18,1.9 0.64,0.64 1.09,1.26 1.36,1.85 0.27,0.59 0.4,1.23 0.4,1.93 0,1.36 -0.47,2.47 -1.41,3.36 -0.94,0.88 -2.16,1.33 -3.67,1.33 -1.18,0 -2.2,-0.29 -3.08,-0.87 -0.87,-0.58 -1.62,-1.48 -2.24,-2.72 l 2.64,-1.59 c 0.79,1.46 1.71,2.19 2.74,2.19 0.54,0 0.99,-0.16 1.36,-0.47 0.37,-0.31 0.55,-0.68 0.55,-1.09 0,-0.37 -0.14,-0.75 -0.42,-1.12 -0.28,-0.37 -0.89,-0.95 -1.83,-1.72 -1.8,-1.47 -2.96,-2.6 -3.49,-3.4 -0.52,-0.8 -0.79,-1.59 -0.79,-2.39 0,-1.15 0.44,-2.13 1.31,-2.95 0.87,-0.82 1.95,-1.23 3.23,-1.23 0.82,0 1.61,0.19 2.36,0.57 0.76,0.39 1.57,1.08 2.44,2.09 z"
   id="path15" />
	<path
   d="m 362.2,442.95 -2.55,1.4 c -0.48,-0.5 -0.95,-0.85 -1.42,-1.04 -0.47,-0.19 -1.02,-0.29 -1.65,-0.29 -1.15,0 -2.08,0.34 -2.78,1.03 -0.71,0.68 -1.06,1.56 -1.06,2.63 0,1.04 0.34,1.89 1.02,2.55 0.68,0.66 1.58,0.99 2.69,0.99 1.37,0 2.44,-0.47 3.21,-1.4 l 2.42,1.66 c -1.31,1.7 -3.16,2.56 -5.55,2.56 -2.15,0 -3.83,-0.64 -5.05,-1.91 -1.22,-1.27 -1.82,-2.76 -1.82,-4.47 0,-1.18 0.29,-2.27 0.89,-3.27 0.59,-1 1.42,-1.78 2.48,-2.35 1.06,-0.57 2.24,-0.85 3.55,-0.85 1.21,0 2.3,0.24 3.27,0.72 0.95,0.46 1.74,1.15 2.35,2.04 z"
   id="path16" />
	<path
   d="m 364.98,435.76 h 3.04 v 5.95 c 0.6,-0.52 1.2,-0.9 1.81,-1.16 0.61,-0.26 1.22,-0.39 1.84,-0.39 1.21,0 2.24,0.42 3.07,1.26 0.71,0.73 1.07,1.79 1.07,3.2 v 8.07 h -3.02 v -5.36 c 0,-1.42 -0.07,-2.37 -0.2,-2.88 -0.13,-0.5 -0.37,-0.88 -0.69,-1.12 -0.33,-0.25 -0.73,-0.37 -1.21,-0.37 -0.62,0 -1.15,0.21 -1.6,0.62 -0.45,0.41 -0.75,0.97 -0.93,1.68 -0.09,0.37 -0.13,1.21 -0.13,2.52 v 4.91 h -3.04 v -16.93 z"
   id="path17" />
	<path
   d="m 378.76,440.48 h 3.1 v 5.88 c 0,1.15 0.08,1.94 0.24,2.39 0.16,0.45 0.41,0.79 0.76,1.04 0.35,0.25 0.78,0.37 1.29,0.37 0.51,0 0.94,-0.12 1.3,-0.37 0.36,-0.24 0.62,-0.6 0.79,-1.07 0.13,-0.35 0.19,-1.1 0.19,-2.26 v -5.99 h 3.07 v 5.18 c 0,2.13 -0.17,3.59 -0.51,4.38 -0.41,0.96 -1.02,1.69 -1.82,2.21 -0.8,0.51 -1.82,0.77 -3.05,0.77 -1.34,0 -2.42,-0.3 -3.25,-0.9 -0.83,-0.6 -1.41,-1.43 -1.75,-2.5 -0.24,-0.74 -0.36,-2.09 -0.36,-4.04 z"
   id="path18" />
	<path
   d="m 392.23,435.76 h 3.07 v 16.94 h -3.07 z"
   id="path19" />
	<path
   d="m 410.33,447.48 h -9.85 c 0.14,0.87 0.52,1.56 1.14,2.07 0.62,0.51 1.41,0.77 2.36,0.77 1.15,0 2.13,-0.4 2.95,-1.2 l 2.58,1.21 c -0.64,0.91 -1.42,1.59 -2.31,2.03 -0.9,0.44 -1.97,0.66 -3.2,0.66 -1.92,0 -3.48,-0.6 -4.68,-1.81 -1.2,-1.21 -1.81,-2.72 -1.81,-4.54 0,-1.86 0.6,-3.41 1.8,-4.64 1.2,-1.23 2.71,-1.85 4.52,-1.85 1.92,0 3.49,0.62 4.69,1.85 1.2,1.23 1.81,2.86 1.81,4.88 z m -3.07,-2.42 c -0.2,-0.68 -0.6,-1.24 -1.2,-1.66 -0.6,-0.43 -1.29,-0.64 -2.08,-0.64 -0.85,0 -1.6,0.24 -2.25,0.72 -0.4,0.3 -0.78,0.83 -1.12,1.58 z"
   id="path20" />
	<path
   d="m 412.81,440.48 h 3.07 v 1.25 c 0.7,-0.59 1.33,-0.99 1.89,-1.22 0.56,-0.23 1.14,-0.34 1.73,-0.34 1.21,0 2.24,0.42 3.08,1.27 0.71,0.72 1.06,1.78 1.06,3.19 v 8.07 h -3.03 v -5.35 c 0,-1.46 -0.07,-2.43 -0.2,-2.91 -0.13,-0.48 -0.36,-0.84 -0.68,-1.09 -0.33,-0.25 -0.73,-0.38 -1.2,-0.38 -0.62,0 -1.15,0.21 -1.6,0.62 -0.45,0.41 -0.75,0.99 -0.92,1.72 -0.09,0.38 -0.13,1.21 -0.13,2.48 v 4.9 h -3.07 z"
   id="path21" />
	<path
   d="m 168.81,463.36 c 2.34,0 4.35,0.85 6.03,2.54 1.68,1.69 2.52,3.75 2.52,6.19 0,2.41 -0.83,4.45 -2.49,6.12 -1.66,1.67 -3.67,2.5 -6.04,2.5 -2.48,0 -4.54,-0.86 -6.18,-2.57 -1.64,-1.71 -2.46,-3.75 -2.46,-6.11 0,-1.58 0.38,-3.03 1.15,-4.36 0.76,-1.33 1.81,-2.38 3.15,-3.15 1.34,-0.77 2.78,-1.16 4.32,-1.16 z m -0.03,3.08 c -1.53,0 -2.81,0.53 -3.86,1.59 -1.04,1.06 -1.56,2.41 -1.56,4.05 0,1.83 0.66,3.27 1.97,4.33 1.02,0.83 2.19,1.25 3.51,1.25 1.49,0 2.76,-0.54 3.81,-1.62 1.05,-1.08 1.57,-2.41 1.57,-3.99 0,-1.57 -0.53,-2.9 -1.59,-3.99 -1.05,-1.07 -2.34,-1.62 -3.85,-1.62 z"
   id="path22" />
	<path
   d="m 187.47,469.79 -1.9,1.9 c -0.77,-0.76 -1.47,-1.15 -2.1,-1.15 -0.34,0 -0.61,0.07 -0.81,0.22 -0.19,0.15 -0.29,0.33 -0.29,0.54 0,0.17 0.06,0.32 0.19,0.46 0.12,0.14 0.43,0.33 0.92,0.57 l 1.12,0.56 c 1.18,0.58 2,1.18 2.44,1.79 0.44,0.61 0.66,1.32 0.66,2.13 0,1.09 -0.4,1.99 -1.2,2.72 -0.8,0.73 -1.87,1.09 -3.21,1.09 -1.78,0 -3.2,-0.7 -4.27,-2.09 l 1.89,-2.06 c 0.36,0.42 0.78,0.76 1.26,1.02 0.48,0.26 0.91,0.39 1.29,0.39 0.4,0 0.73,-0.1 0.98,-0.29 0.25,-0.2 0.37,-0.42 0.37,-0.67 0,-0.47 -0.45,-0.93 -1.34,-1.38 l -1.03,-0.52 c -1.98,-1 -2.96,-2.24 -2.96,-3.74 0,-0.97 0.37,-1.79 1.12,-2.48 0.75,-0.68 1.7,-1.03 2.86,-1.03 0.79,0 1.54,0.17 2.24,0.52 0.69,0.35 1.29,0.85 1.77,1.5 z"
   id="path23" />
	<path
   d="m 190.11,468.08 h 3.07 v 1.25 c 0.7,-0.59 1.33,-0.99 1.89,-1.22 0.56,-0.23 1.14,-0.34 1.73,-0.34 1.21,0 2.24,0.42 3.08,1.27 0.71,0.72 1.07,1.78 1.07,3.19 v 8.08 h -3.03 v -5.35 c 0,-1.46 -0.07,-2.43 -0.2,-2.91 -0.13,-0.48 -0.36,-0.84 -0.68,-1.09 -0.32,-0.25 -0.73,-0.38 -1.2,-0.38 -0.62,0 -1.15,0.21 -1.6,0.62 -0.45,0.41 -0.75,0.99 -0.92,1.72 -0.09,0.38 -0.13,1.21 -0.13,2.48 v 4.9 h -3.07 v -12.22 z"
   id="path24" />
	<path
   d="M 212.93,468.08 H 216 v 12.22 h -3.07 v -1.29 c -0.6,0.57 -1.2,0.98 -1.8,1.23 -0.6,0.25 -1.25,0.38 -1.96,0.38 -1.58,0 -2.94,-0.61 -4.09,-1.84 -1.15,-1.22 -1.73,-2.75 -1.73,-4.57 0,-1.89 0.56,-3.43 1.67,-4.64 1.11,-1.21 2.47,-1.81 4.06,-1.81 0.73,0 1.42,0.14 2.06,0.42 0.64,0.28 1.24,0.69 1.78,1.25 v -1.35 z m -3.22,2.52 c -0.95,0 -1.73,0.33 -2.36,1 -0.63,0.67 -0.94,1.53 -0.94,2.58 0,1.06 0.32,1.92 0.96,2.61 0.64,0.68 1.42,1.02 2.36,1.02 0.96,0 1.76,-0.33 2.4,-1 0.63,-0.67 0.95,-1.55 0.95,-2.63 0,-1.06 -0.32,-1.92 -0.95,-2.58 -0.65,-0.68 -1.45,-1 -2.42,-1 z"
   id="path25" />
	<path
   d="m 222.14,463.36 v 6.06 c 0.55,-0.55 1.15,-0.97 1.8,-1.25 0.64,-0.28 1.33,-0.42 2.07,-0.42 1.59,0 2.95,0.6 4.07,1.81 1.12,1.21 1.67,2.75 1.67,4.64 0,1.82 -0.58,3.34 -1.73,4.57 -1.15,1.22 -2.52,1.84 -4.1,1.84 -0.7,0 -1.36,-0.13 -1.97,-0.38 -0.61,-0.25 -1.21,-0.66 -1.81,-1.23 v 1.29 h -3.04 v -16.94 h 3.04 z m 3.22,7.24 c -0.97,0 -1.77,0.33 -2.4,0.99 -0.64,0.66 -0.95,1.52 -0.95,2.58 0,1.08 0.32,1.96 0.95,2.63 0.64,0.67 1.44,1 2.4,1 0.94,0 1.72,-0.34 2.36,-1.02 0.64,-0.68 0.96,-1.55 0.96,-2.61 0,-1.05 -0.31,-1.91 -0.94,-2.58 -0.63,-0.67 -1.42,-0.99 -2.38,-0.99 z"
   id="path26" />
	<path
   d="m 233.56,468.08 h 2.63 v 1.54 c 0.28,-0.61 0.66,-1.07 1.13,-1.38 0.47,-0.31 0.99,-0.47 1.55,-0.47 0.4,0 0.81,0.1 1.25,0.31 l -0.95,2.64 c -0.36,-0.18 -0.66,-0.27 -0.89,-0.27 -0.47,0 -0.87,0.29 -1.2,0.88 -0.33,0.58 -0.49,1.73 -0.49,3.44 l 0.01,0.6 v 4.94 h -3.04 z"
   id="path27" />
	<path
   d="m 241.63,468.08 h 3.1 v 5.88 c 0,1.15 0.08,1.94 0.24,2.39 0.16,0.45 0.41,0.79 0.76,1.04 0.35,0.25 0.78,0.37 1.29,0.37 0.51,0 0.94,-0.12 1.3,-0.37 0.36,-0.24 0.62,-0.6 0.79,-1.07 0.13,-0.35 0.19,-1.1 0.19,-2.26 v -5.99 h 3.07 v 5.18 c 0,2.13 -0.17,3.59 -0.51,4.38 -0.41,0.96 -1.02,1.69 -1.82,2.21 -0.8,0.52 -1.82,0.77 -3.05,0.77 -1.34,0 -2.42,-0.3 -3.25,-0.9 -0.83,-0.6 -1.41,-1.43 -1.75,-2.5 -0.24,-0.74 -0.36,-2.09 -0.36,-4.04 z m 2.89,-5.45 c 0.45,0 0.83,0.16 1.15,0.47 0.32,0.31 0.47,0.69 0.47,1.13 0,0.45 -0.16,0.83 -0.47,1.15 -0.31,0.32 -0.7,0.47 -1.15,0.47 -0.44,0 -0.82,-0.16 -1.13,-0.47 -0.31,-0.31 -0.47,-0.7 -0.47,-1.15 0,-0.44 0.16,-0.82 0.47,-1.13 0.31,-0.31 0.69,-0.47 1.13,-0.47 z m 4.98,0 c 0.45,0 0.83,0.16 1.15,0.47 0.32,0.31 0.47,0.69 0.47,1.13 0,0.45 -0.16,0.83 -0.47,1.15 -0.31,0.32 -0.7,0.47 -1.15,0.47 -0.44,0 -0.82,-0.16 -1.13,-0.47 -0.31,-0.31 -0.47,-0.7 -0.47,-1.15 0,-0.44 0.16,-0.82 0.47,-1.13 0.31,-0.31 0.69,-0.47 1.13,-0.47 z"
   id="path28" />
	<path
   d="m 267.4,470.55 -2.55,1.4 c -0.48,-0.5 -0.95,-0.85 -1.42,-1.04 -0.47,-0.2 -1.02,-0.29 -1.65,-0.29 -1.15,0 -2.07,0.34 -2.78,1.03 -0.71,0.68 -1.06,1.56 -1.06,2.63 0,1.04 0.34,1.89 1.02,2.54 0.68,0.66 1.58,0.99 2.69,0.99 1.37,0 2.44,-0.47 3.2,-1.4 l 2.42,1.66 c -1.31,1.7 -3.16,2.56 -5.55,2.56 -2.15,0 -3.83,-0.64 -5.05,-1.91 -1.22,-1.27 -1.82,-2.76 -1.82,-4.47 0,-1.18 0.3,-2.27 0.89,-3.27 0.59,-1 1.42,-1.78 2.48,-2.35 1.06,-0.57 2.24,-0.85 3.55,-0.85 1.21,0 2.3,0.24 3.27,0.72 0.96,0.47 1.75,1.16 2.36,2.05 z"
   id="path29" />
	<path
   d="m 270.18,463.36 h 3.07 v 9.75 l 4.51,-5.04 h 3.85 l -5.26,5.86 5.89,6.36 h -3.81 l -5.19,-5.63 v 5.63 h -3.07 v -16.93 z"
   id="path30" />
	<path
   d="m 305.51,480.3 v -16.52 h 2.6 c 1.51,0 2.61,0.1 3.31,0.29 0.99,0.26 1.78,0.75 2.36,1.46 0.58,0.71 0.88,1.55 0.88,2.52 0,0.63 -0.13,1.2 -0.4,1.71 -0.27,0.51 -0.7,0.99 -1.3,1.44 1,0.47 1.74,1.06 2.2,1.77 0.46,0.71 0.7,1.54 0.7,2.51 0,0.93 -0.24,1.77 -0.72,2.54 -0.48,0.76 -1.1,1.33 -1.86,1.71 -0.76,0.38 -1.8,0.57 -3.14,0.57 z m 3.15,-13.52 v 3.48 h 0.69 c 0.77,0 1.34,-0.16 1.71,-0.48 0.37,-0.32 0.56,-0.76 0.56,-1.31 0,-0.52 -0.18,-0.93 -0.53,-1.23 -0.35,-0.3 -0.89,-0.46 -1.61,-0.46 z m 0,6.29 v 4.23 h 0.79 c 1.31,0 2.19,-0.16 2.64,-0.49 0.45,-0.33 0.68,-0.81 0.68,-1.44 0,-0.71 -0.27,-1.27 -0.8,-1.68 -0.53,-0.41 -1.42,-0.62 -2.66,-0.62 z"
   id="path31" />
	<path
   d="m 317.8,468.08 h 2.63 v 1.54 c 0.28,-0.61 0.66,-1.07 1.13,-1.38 0.47,-0.31 0.99,-0.47 1.55,-0.47 0.4,0 0.81,0.1 1.25,0.31 l -0.95,2.64 c -0.36,-0.18 -0.66,-0.27 -0.89,-0.27 -0.47,0 -0.87,0.29 -1.2,0.88 -0.33,0.58 -0.49,1.73 -0.49,3.44 l 0.01,0.6 v 4.94 h -3.04 z"
   id="path32" />
	<path
   d="m 327.07,463.05 c 0.54,0 1,0.19 1.38,0.58 0.38,0.39 0.58,0.86 0.58,1.42 0,0.55 -0.19,1.01 -0.57,1.4 -0.38,0.38 -0.84,0.58 -1.37,0.58 -0.54,0 -1.01,-0.2 -1.39,-0.59 -0.38,-0.39 -0.58,-0.87 -0.58,-1.43 0,-0.54 0.19,-1 0.57,-1.38 0.38,-0.38 0.84,-0.58 1.38,-0.58 z m -1.54,5.03 h 3.07 v 12.22 h -3.07 z"
   id="path33" />
	<path
   d="m 331.38,468.08 h 3.07 v 1.25 c 0.7,-0.59 1.33,-0.99 1.89,-1.22 0.56,-0.23 1.14,-0.34 1.73,-0.34 1.21,0 2.24,0.42 3.08,1.27 0.71,0.72 1.06,1.78 1.06,3.19 v 8.08 h -3.03 v -5.35 c 0,-1.46 -0.07,-2.43 -0.2,-2.91 -0.13,-0.48 -0.36,-0.84 -0.68,-1.09 -0.33,-0.25 -0.73,-0.38 -1.2,-0.38 -0.62,0 -1.15,0.21 -1.6,0.62 -0.45,0.41 -0.75,0.99 -0.92,1.72 -0.09,0.38 -0.13,1.21 -0.13,2.48 v 4.9 h -3.07 z"
   id="path34" />
	<path
   d="m 345.21,463.36 h 3.07 v 9.75 l 4.51,-5.04 h 3.85 l -5.26,5.86 5.89,6.36 h -3.81 l -5.19,-5.63 v 5.63 h -3.07 v -16.93 z"
   id="path35" />
	<path
   d="m 366.01,469.79 -1.9,1.9 c -0.77,-0.76 -1.47,-1.15 -2.1,-1.15 -0.34,0 -0.61,0.07 -0.81,0.22 -0.19,0.15 -0.29,0.33 -0.29,0.54 0,0.17 0.06,0.32 0.19,0.46 0.12,0.14 0.43,0.33 0.92,0.57 l 1.12,0.56 c 1.18,0.58 2,1.18 2.44,1.79 0.44,0.61 0.66,1.32 0.66,2.13 0,1.09 -0.4,1.99 -1.2,2.72 -0.8,0.73 -1.87,1.09 -3.21,1.09 -1.78,0 -3.2,-0.7 -4.27,-2.09 l 1.89,-2.06 c 0.36,0.42 0.78,0.76 1.26,1.02 0.48,0.26 0.91,0.39 1.29,0.39 0.4,0 0.73,-0.1 0.98,-0.29 0.25,-0.2 0.37,-0.42 0.37,-0.67 0,-0.47 -0.45,-0.93 -1.34,-1.38 l -1.03,-0.52 c -1.98,-1 -2.96,-2.24 -2.96,-3.74 0,-0.97 0.37,-1.79 1.12,-2.48 0.75,-0.68 1.7,-1.03 2.86,-1.03 0.79,0 1.54,0.17 2.24,0.52 0.69,0.35 1.28,0.85 1.77,1.5 z"
   id="path36" />
	<path
   d="m 369.02,463.58 h 3.07 v 4.5 h 1.82 v 2.64 h -1.82 v 9.58 h -3.07 v -9.58 h -1.57 v -2.64 h 1.57 z"
   id="path37" />
	<path
   d="m 374.82,468.08 h 2.63 v 1.54 c 0.28,-0.61 0.66,-1.07 1.13,-1.38 0.47,-0.31 0.99,-0.47 1.55,-0.47 0.4,0 0.81,0.1 1.25,0.31 l -0.95,2.64 c -0.36,-0.18 -0.66,-0.27 -0.89,-0.27 -0.47,0 -0.87,0.29 -1.2,0.88 -0.33,0.58 -0.49,1.73 -0.49,3.44 l 0.01,0.6 v 4.94 h -3.04 z"
   id="path38" />
	<path
   d="m 391.92,468.08 h 3.07 v 12.22 h -3.07 v -1.29 c -0.6,0.57 -1.2,0.98 -1.8,1.23 -0.6,0.25 -1.25,0.38 -1.96,0.38 -1.58,0 -2.94,-0.61 -4.09,-1.84 -1.15,-1.22 -1.73,-2.75 -1.73,-4.57 0,-1.89 0.56,-3.43 1.67,-4.64 1.11,-1.21 2.47,-1.81 4.06,-1.81 0.73,0 1.42,0.14 2.06,0.42 0.64,0.28 1.24,0.69 1.78,1.25 v -1.35 z m -3.22,2.52 c -0.95,0 -1.73,0.33 -2.36,1 -0.63,0.67 -0.94,1.53 -0.94,2.58 0,1.06 0.32,1.92 0.96,2.61 0.64,0.68 1.42,1.02 2.36,1.02 0.96,0 1.76,-0.33 2.4,-1 0.63,-0.67 0.95,-1.55 0.95,-2.63 0,-1.06 -0.32,-1.92 -0.95,-2.58 -0.65,-0.68 -1.45,-1 -2.42,-1 z"
   id="path39" />
	<path
   d="m 403.04,472.38 v -2.74 c 0.78,0 1.39,-0.18 1.84,-0.54 0.45,-0.36 0.68,-0.84 0.68,-1.42 0,-0.5 -0.18,-0.92 -0.53,-1.27 -0.35,-0.34 -0.79,-0.52 -1.32,-0.52 -0.5,0 -0.96,0.15 -1.38,0.46 -0.42,0.31 -0.73,0.72 -0.91,1.24 -0.18,0.52 -0.28,1.4 -0.28,2.66 v 10.05 h -3.07 v -10.05 c 0,-1.83 0.22,-3.21 0.65,-4.14 0.43,-0.94 1.1,-1.68 1.98,-2.23 0.89,-0.55 1.92,-0.83 3.09,-0.83 1.44,0 2.6,0.41 3.5,1.23 0.89,0.82 1.34,1.81 1.34,2.97 0,0.64 -0.14,1.22 -0.41,1.75 -0.28,0.53 -0.65,0.96 -1.13,1.29 -0.47,0.33 -1.12,0.56 -1.93,0.7 0.9,0.16 1.65,0.46 2.27,0.9 0.62,0.44 1.09,0.98 1.42,1.62 0.33,0.64 0.49,1.36 0.49,2.17 0,0.94 -0.21,1.78 -0.63,2.54 -0.42,0.76 -1.02,1.34 -1.78,1.76 -0.76,0.42 -1.62,0.63 -2.56,0.63 -0.64,0 -1.27,-0.13 -1.89,-0.38 v -2.86 c 0.47,0.25 0.95,0.37 1.43,0.37 0.68,0 1.25,-0.24 1.71,-0.72 0.46,-0.48 0.69,-1.07 0.69,-1.75 0,-0.54 -0.13,-1.02 -0.4,-1.45 -0.27,-0.43 -0.63,-0.77 -1.08,-1.02 -0.45,-0.25 -1.05,-0.39 -1.79,-0.42 z"
   id="path40" />
	<path
   d="m 424.13,475.08 h -9.85 c 0.14,0.87 0.52,1.56 1.14,2.07 0.62,0.51 1.41,0.77 2.36,0.77 1.15,0 2.13,-0.4 2.95,-1.2 l 2.58,1.21 c -0.64,0.91 -1.42,1.59 -2.31,2.03 -0.9,0.44 -1.97,0.66 -3.2,0.66 -1.92,0 -3.48,-0.6 -4.68,-1.81 -1.21,-1.21 -1.81,-2.72 -1.81,-4.54 0,-1.86 0.6,-3.41 1.8,-4.64 1.2,-1.23 2.71,-1.85 4.52,-1.85 1.92,0 3.49,0.62 4.69,1.85 1.21,1.23 1.81,2.86 1.81,4.88 z m -3.07,-2.42 c -0.2,-0.68 -0.6,-1.24 -1.2,-1.66 -0.6,-0.43 -1.29,-0.64 -2.08,-0.64 -0.85,0 -1.6,0.24 -2.25,0.72 -0.4,0.3 -0.78,0.83 -1.12,1.58 z"
   id="path41" />
</g>
<g
   id="g44"
   transform="translate(-159.54,-280.85001)">
	<rect
   x="245.45"
   y="391.06"
   class="st0"
   width="19.84"
   height="19.84"
   id="rect41" />
	<rect
   x="405.51999"
   y="305.23001"
   class="st0"
   width="19.84"
   height="19.84"
   id="rect42" />
	<path
   d="m 400.63,305.27 v 19.84 c 0,0 -5.02,0.03 -7.85,0 -26.76,-0.25 -34.94,13.46 -45.6,47.72 -8.16,26.26 -34.16,38.06 -61.52,38.06 l -15.49,-0.02 c 0,0 0,-15.6 0,-19.84 0.82,0 15.34,0.09 15.34,0.09 25.58,-0.04 39.75,-13.11 46.32,-37.61 9.87,-36.78 33.27,-48.31 58,-48.25 z"
   id="path42" />
	<rect
   x="245.46001"
   y="280.85001"
   width="19.809999"
   height="105.31"
   id="rect43" />
	<path
   d="m 285.94,305.45 c -22.35,0 -40.48,18.12 -40.48,40.48 0,22.35 18.12,40.48 40.48,40.48 22.36,0 40.48,-18.12 40.48,-40.48 0,-22.35 -18.12,-40.48 -40.48,-40.48 z m 0,60.81 c -11.23,0 -20.33,-9.1 -20.33,-20.33 0,-11.23 9.1,-20.33 20.33,-20.33 11.23,0 20.33,9.1 20.33,20.33 0,11.23 -9.1,20.33 -20.33,20.33 z"
   id="path43" />
	<rect
   x="159.55"
   y="280.85001"
   width="19.809999"
   height="105.31"
   id="rect44" />
	<path
   d="m 200.02,305.45 c -22.35,0 -40.48,18.12 -40.48,40.48 0,22.35 18.12,40.48 40.48,40.48 22.36,0 40.48,-18.12 40.48,-40.48 0,-22.36 -18.12,-40.48 -40.48,-40.48 z m 0,60.8 c -10.38,0 -20.33,-9.1 -20.33,-20.33 0,-11.23 9.95,-20.33 20.33,-20.33 11.23,0 20.33,9.1 20.33,20.33 0,11.23 -9.1,20.33 -20.33,20.33 z"
   id="path44" />
</g>
<rect
   x="132.03001"
   y="190.48999"
   class="st0"
   width="3.3599999"
   height="3.3599999"
   id="rect45" />
</svg>
